<?xml version="1.0" encoding="UTF-8" standalone="no"?>
<!DOCTYPE svg PUBLIC "-//W3C//DTD SVG 1.1//EN"
 "http://www.w3.org/Graphics/SVG/1.1/DTD/svg11.dtd">
<!-- Generated by graphviz version 2.38.0 (20140413.2041)
 -->
<!-- Title: controllers_diagram Pages: 1 -->
<svg width="636pt" height="582pt"
 viewBox="0.00 0.00 636.00 582.00" xmlns="http://www.w3.org/2000/svg" xmlns:xlink="http://www.w3.org/1999/xlink">
<g id="graph0" class="graph" transform="scale(1 1) rotate(0) translate(244 338)">
<title>controllers_diagram</title>
<polygon fill="none" stroke="none" points="-244,244 -244,-338 392,-338 392,244 -244,244"/>
<!-- _diagram_info -->
<g id="node1" class="node"><title>_diagram_info</title>
<text text-anchor="start" x="88" y="128.4" font-family="Times,serif" font-size="13.00">Controllers diagram</text>
<text text-anchor="start" x="88" y="142.4" font-family="Times,serif" font-size="13.00">Date: Nov 19 2015 &#45; 01:14</text>
<text text-anchor="start" x="88" y="156.4" font-family="Times,serif" font-size="13.00">Migration version: 20151030030904</text>
<text text-anchor="start" x="88" y="170.4" font-family="Times,serif" font-size="13.00">Generated by RailRoady 1.4.1</text>
<text text-anchor="start" x="88" y="184.4" font-family="Times,serif" font-size="13.00">http://railroady.prestonlee.com</text>
</g>
<!-- HomeController -->
<g id="node2" class="node"><title>HomeController</title>
<path fill="none" stroke="black" d="M-228,-240.5C-228,-240.5 -146,-240.5 -146,-240.5 -140,-240.5 -134,-246.5 -134,-252.5 -134,-252.5 -134,-321.5 -134,-321.5 -134,-327.5 -140,-333.5 -146,-333.5 -146,-333.5 -228,-333.5 -228,-333.5 -234,-333.5 -240,-327.5 -240,-321.5 -240,-321.5 -240,-252.5 -240,-252.5 -240,-246.5 -234,-240.5 -228,-240.5"/>
<text text-anchor="middle" x="-187" y="-318.3" font-family="Times,serif" font-size="14.00">HomeController</text>
<polyline fill="none" stroke="black" points="-240,-310.5 -134,-310.5 "/>
<text text-anchor="start" x="-232" y="-295.3" font-family="Times,serif" font-size="14.00">index</text>
<polyline fill="none" stroke="black" points="-240,-287.5 -134,-287.5 "/>
<polyline fill="none" stroke="black" points="-240,-263.5 -134,-263.5 "/>
<text text-anchor="start" x="-232" y="-248.3" font-family="Times,serif" font-size="14.00">_layout</text>
</g>
<!-- OmniauthCallbacksController -->
<g id="node3" class="node"><title>OmniauthCallbacksController</title>
<path fill="none" stroke="black" d="M220,79.5C220,79.5 376,79.5 376,79.5 382,79.5 388,73.5 388,67.5 388,67.5 388,-1.5 388,-1.5 388,-7.5 382,-13.5 376,-13.5 376,-13.5 220,-13.5 220,-13.5 214,-13.5 208,-7.5 208,-1.5 208,-1.5 208,67.5 208,67.5 208,73.5 214,79.5 220,79.5"/>
<text text-anchor="middle" x="298" y="1.7" font-family="Times,serif" font-size="14.00">OmniauthCallbacksController</text>
<polyline fill="none" stroke="black" points="208,9.5 388,9.5 "/>
<text text-anchor="start" x="216" y="24.7" font-family="Times,serif" font-size="14.00">facebook</text>
<polyline fill="none" stroke="black" points="208,32.5 388,32.5 "/>
<polyline fill="none" stroke="black" points="208,56.5 388,56.5 "/>
<text text-anchor="start" x="216" y="71.7" font-family="Times,serif" font-size="14.00">_layout</text>
</g>
<!-- SessionsController -->
<g id="node4" class="node"><title>SessionsController</title>
<path fill="none" stroke="black" d="M220,-48.5C220,-48.5 336,-48.5 336,-48.5 342,-48.5 348,-54.5 348,-60.5 348,-60.5 348,-129.5 348,-129.5 348,-135.5 342,-141.5 336,-141.5 336,-141.5 220,-141.5 220,-141.5 214,-141.5 208,-135.5 208,-129.5 208,-129.5 208,-60.5 208,-60.5 208,-54.5 214,-48.5 220,-48.5"/>
<text text-anchor="middle" x="278" y="-126.3" font-family="Times,serif" font-size="14.00">SessionsController</text>
<polyline fill="none" stroke="black" points="208,-118.5 348,-118.5 "/>
<polyline fill="none" stroke="black" points="208,-94.5 348,-94.5 "/>
<text text-anchor="start" x="216" y="-79.3" font-family="Times,serif" font-size="14.00">after_sign_in_path_for</text>
<polyline fill="none" stroke="black" points="208,-71.5 348,-71.5 "/>
<text text-anchor="start" x="216" y="-56.3" font-family="Times,serif" font-size="14.00">_layout</text>
</g>
<!-- TripsController -->
<g id="node5" class="node"><title>TripsController</title>
<path fill="none" stroke="black" d="M92.5,79C92.5,79 169.5,79 169.5,79 175.5,79 181.5,73 181.5,67 181.5,67 181.5,-137 181.5,-137 181.5,-143 175.5,-149 169.5,-149 169.5,-149 92.5,-149 92.5,-149 86.5,-149 80.5,-143 80.5,-137 80.5,-137 80.5,67 80.5,67 80.5,73 86.5,79 92.5,79"/>
<text text-anchor="middle" x="131" y="-133.8" font-family="Times,serif" font-size="14.00">TripsController</text>
<polyline fill="none" stroke="black" points="80.5,-126 181.5,-126 "/>
<text text-anchor="start" x="88.5" y="-110.8" font-family="Times,serif" font-size="14.00">create</text>
<text text-anchor="start" x="88.5" y="-95.8" font-family="Times,serif" font-size="14.00">destroy</text>
<text text-anchor="start" x="88.5" y="-80.8" font-family="Times,serif" font-size="14.00">edit</text>
<text text-anchor="start" x="88.5" y="-65.8" font-family="Times,serif" font-size="14.00">index</text>
<text text-anchor="start" x="88.5" y="-50.8" font-family="Times,serif" font-size="14.00">new</text>
<text text-anchor="start" x="88.5" y="-35.8" font-family="Times,serif" font-size="14.00">search</text>
<text text-anchor="start" x="88.5" y="-20.8" font-family="Times,serif" font-size="14.00">show</text>
<text text-anchor="start" x="88.5" y="-5.8" font-family="Times,serif" font-size="14.00">update</text>
<polyline fill="none" stroke="black" points="80.5,2 181.5,2 "/>
<polyline fill="none" stroke="black" points="80.5,26 181.5,26 "/>
<text text-anchor="start" x="88.5" y="41.2" font-family="Times,serif" font-size="14.00">_layout</text>
<text text-anchor="start" x="88.5" y="56.2" font-family="Times,serif" font-size="14.00">set_trip</text>
<text text-anchor="start" x="88.5" y="71.2" font-family="Times,serif" font-size="14.00">trip_params</text>
</g>
<!-- UserRequestsController -->
<g id="node6" class="node"><title>UserRequestsController</title>
<path fill="none" stroke="black" d="M-84,-128C-84,-128 38,-128 38,-128 44,-128 50,-134 50,-140 50,-140 50,-284 50,-284 50,-290 44,-296 38,-296 38,-296 -84,-296 -84,-296 -90,-296 -96,-290 -96,-284 -96,-284 -96,-140 -96,-140 -96,-134 -90,-128 -84,-128"/>
<text text-anchor="middle" x="-23" y="-280.8" font-family="Times,serif" font-size="14.00">UserRequestsController</text>
<polyline fill="none" stroke="black" points="-96,-273 50,-273 "/>
<text text-anchor="start" x="-88" y="-257.8" font-family="Times,serif" font-size="14.00">approve_request</text>
<text text-anchor="start" x="-88" y="-242.8" font-family="Times,serif" font-size="14.00">create</text>
<text text-anchor="start" x="-88" y="-227.8" font-family="Times,serif" font-size="14.00">reject_request</text>
<text text-anchor="start" x="-88" y="-212.8" font-family="Times,serif" font-size="14.00">show_requests</text>
<polyline fill="none" stroke="black" points="-96,-205 50,-205 "/>
<polyline fill="none" stroke="black" points="-96,-181 50,-181 "/>
<text text-anchor="start" x="-88" y="-165.8" font-family="Times,serif" font-size="14.00">_layout</text>
<text text-anchor="start" x="-88" y="-150.8" font-family="Times,serif" font-size="14.00">set_user_request</text>
<text text-anchor="start" x="-88" y="-135.8" font-family="Times,serif" font-size="14.00">user_request_params</text>
</g>
<!-- ApplicationController -->
<g id="node7" class="node"><title>ApplicationController</title>
<path fill="none" stroke="black" d="M188,-176.5C188,-176.5 358,-176.5 358,-176.5 364,-176.5 370,-182.5 370,-188.5 370,-188.5 370,-287.5 370,-287.5 370,-293.5 364,-299.5 358,-299.5 358,-299.5 188,-299.5 188,-299.5 182,-299.5 176,-293.5 176,-287.5 176,-287.5 176,-188.5 176,-188.5 176,-182.5 182,-176.5 188,-176.5"/>
<text text-anchor="middle" x="273" y="-284.3" font-family="Times,serif" font-size="14.00">ApplicationController</text>
<polyline fill="none" stroke="black" points="176,-276.5 370,-276.5 "/>
<polyline fill="none" stroke="black" points="176,-252.5 370,-252.5 "/>
<text text-anchor="start" x="184" y="-237.3" font-family="Times,serif" font-size="14.00">configure_permitted_parameters</text>
<text text-anchor="start" x="184" y="-222.3" font-family="Times,serif" font-size="14.00">layout_by_resource</text>
<text text-anchor="start" x="184" y="-207.3" font-family="Times,serif" font-size="14.00">new_session_path</text>
<polyline fill="none" stroke="black" points="176,-199.5 370,-199.5 "/>
<text text-anchor="start" x="184" y="-184.3" font-family="Times,serif" font-size="14.00">_layout</text>
</g>
<!-- RegistrationsController -->
<g id="node8" class="node"><title>RegistrationsController</title>
<path fill="none" stroke="black" d="M-227.5,239.5C-227.5,239.5 -108.5,239.5 -108.5,239.5 -102.5,239.5 -96.5,233.5 -96.5,227.5 -96.5,227.5 -96.5,158.5 -96.5,158.5 -96.5,152.5 -102.5,146.5 -108.5,146.5 -108.5,146.5 -227.5,146.5 -227.5,146.5 -233.5,146.5 -239.5,152.5 -239.5,158.5 -239.5,158.5 -239.5,227.5 -239.5,227.5 -239.5,233.5 -233.5,239.5 -227.5,239.5"/>
<text text-anchor="middle" x="-168" y="161.7" font-family="Times,serif" font-size="14.00">RegistrationsController</text>
<polyline fill="none" stroke="black" points="-239.5,169.5 -96.5,169.5 "/>
<polyline fill="none" stroke="black" points="-239.5,193.5 -96.5,193.5 "/>
<text text-anchor="start" x="-231.5" y="208.7" font-family="Times,serif" font-size="14.00">after_sign_up_path_for</text>
<polyline fill="none" stroke="black" points="-239.5,216.5 -96.5,216.5 "/>
<text text-anchor="start" x="-231.5" y="231.7" font-family="Times,serif" font-size="14.00">_layout</text>
</g>
<!-- CompaniesController -->
<g id="node9" class="node"><title>CompaniesController</title>
<path fill="none" stroke="black" d="M-68,111.5C-68,111.5 42,111.5 42,111.5 48,111.5 54,105.5 54,99.5 54,99.5 54,-89.5 54,-89.5 54,-95.5 48,-101.5 42,-101.5 42,-101.5 -68,-101.5 -68,-101.5 -74,-101.5 -80,-95.5 -80,-89.5 -80,-89.5 -80,99.5 -80,99.5 -80,105.5 -74,111.5 -68,111.5"/>
<text text-anchor="middle" x="-13" y="-86.3" font-family="Times,serif" font-size="14.00">CompaniesController</text>
<polyline fill="none" stroke="black" points="-80,-78.5 54,-78.5 "/>
<text text-anchor="start" x="-72" y="-63.3" font-family="Times,serif" font-size="14.00">create</text>
<text text-anchor="start" x="-72" y="-48.3" font-family="Times,serif" font-size="14.00">destroy</text>
<text text-anchor="start" x="-72" y="-33.3" font-family="Times,serif" font-size="14.00">edit</text>
<text text-anchor="start" x="-72" y="-18.3" font-family="Times,serif" font-size="14.00">index</text>
<text text-anchor="start" x="-72" y="-3.3" font-family="Times,serif" font-size="14.00">new</text>
<text text-anchor="start" x="-72" y="11.7" font-family="Times,serif" font-size="14.00">show</text>
<text text-anchor="start" x="-72" y="26.7" font-family="Times,serif" font-size="14.00">update</text>
<polyline fill="none" stroke="black" points="-80,34.5 54,34.5 "/>
<polyline fill="none" stroke="black" points="-80,58.5 54,58.5 "/>
<text text-anchor="start" x="-72" y="73.7" font-family="Times,serif" font-size="14.00">_layout</text>
<text text-anchor="start" x="-72" y="88.7" font-family="Times,serif" font-size="14.00">company_params</text>
<text text-anchor="start" x="-72" y="103.7" font-family="Times,serif" font-size="14.00">set_company</text>
</g>
<!-- PostsController -->
<g id="node10" class="node"><title>PostsController</title>
<path fill="none" stroke="black" d="M-51.5,239C-51.5,239 25.5,239 25.5,239 31.5,239 37.5,233 37.5,227 37.5,227 37.5,157 37.5,157 37.5,151 31.5,145 25.5,145 25.5,145 -51.5,145 -51.5,145 -57.5,145 -63.5,151 -63.5,157 -63.5,157 -63.5,227 -63.5,227 -63.5,233 -57.5,239 -51.5,239"/>
<text text-anchor="middle" x="-13" y="160.2" font-family="Times,serif" font-size="14.00">PostsController</text>
<polyline fill="none" stroke="black" points="-63.5,168 37.5,168 "/>
<polyline fill="none" stroke="black" points="-63.5,192 37.5,192 "/>
<polyline fill="none" stroke="black" points="-63.5,216 37.5,216 "/>
<text text-anchor="start" x="-55.5" y="231.2" font-family="Times,serif" font-size="14.00">_layout</text>
</g>
<!-- UsersController -->
<g id="node11" class="node"><title>UsersController</title>
<path fill="none" stroke="black" d="M-195.5,111.5C-195.5,111.5 -116.5,111.5 -116.5,111.5 -110.5,111.5 -104.5,105.5 -104.5,99.5 -104.5,99.5 -104.5,-89.5 -104.5,-89.5 -104.5,-95.5 -110.5,-101.5 -116.5,-101.5 -116.5,-101.5 -195.5,-101.5 -195.5,-101.5 -201.5,-101.5 -207.5,-95.5 -207.5,-89.5 -207.5,-89.5 -207.5,99.5 -207.5,99.5 -207.5,105.5 -201.5,111.5 -195.5,111.5"/>
<text text-anchor="middle" x="-156" y="-86.3" font-family="Times,serif" font-size="14.00">UsersController</text>
<polyline fill="none" stroke="black" points="-207.5,-78.5 -104.5,-78.5 "/>
<text text-anchor="start" x="-199.5" y="-63.3" font-family="Times,serif" font-size="14.00">create</text>
<text text-anchor="start" x="-199.5" y="-48.3" font-family="Times,serif" font-size="14.00">destroy</text>
<text text-anchor="start" x="-199.5" y="-33.3" font-family="Times,serif" font-size="14.00">edit</text>
<text text-anchor="start" x="-199.5" y="-18.3" font-family="Times,serif" font-size="14.00">index</text>
<text text-anchor="start" x="-199.5" y="-3.3" font-family="Times,serif" font-size="14.00">new</text>
<text text-anchor="start" x="-199.5" y="11.7" font-family="Times,serif" font-size="14.00">show</text>
<text text-anchor="start" x="-199.5" y="26.7" font-family="Times,serif" font-size="14.00">update</text>
<polyline fill="none" stroke="black" points="-207.5,34.5 -104.5,34.5 "/>
<polyline fill="none" stroke="black" points="-207.5,58.5 -104.5,58.5 "/>
<text text-anchor="start" x="-199.5" y="73.7" font-family="Times,serif" font-size="14.00">_layout</text>
<text text-anchor="start" x="-199.5" y="88.7" font-family="Times,serif" font-size="14.00">set_user</text>
<text text-anchor="start" x="-199.5" y="103.7" font-family="Times,serif" font-size="14.00">user_params</text>
</g>
</g>
</svg>
