<?xml version="1.0" encoding="UTF-8" standalone="no"?>
<!DOCTYPE svg PUBLIC "-//W3C//DTD SVG 1.1//EN"
 "http://www.w3.org/Graphics/SVG/1.1/DTD/svg11.dtd">
<!-- Generated by graphviz version 2.38.0 (20140413.2041)
 -->
<!-- Title: controllers_diagram Pages: 1 -->
<svg width="681pt" height="641pt"
 viewBox="0.00 0.00 680.50 640.50" xmlns="http://www.w3.org/2000/svg" xmlns:xlink="http://www.w3.org/1999/xlink">
<g id="graph0" class="graph" transform="scale(1 1) rotate(0) translate(258.5 398.5)">
<title>controllers_diagram</title>
<polygon fill="none" stroke="none" points="-258.5,242 -258.5,-398.5 422,-398.5 422,242 -258.5,242"/>
<!-- _diagram_info -->
<g id="node1" class="node"><title>_diagram_info</title>
<text text-anchor="start" x="110" y="157.4" font-family="Times,serif" font-size="13.00">Controllers diagram</text>
<text text-anchor="start" x="110" y="171.4" font-family="Times,serif" font-size="13.00">Date: Nov 24 2015 &#45; 19:50</text>
<text text-anchor="start" x="110" y="185.4" font-family="Times,serif" font-size="13.00">Migration version: 20151019003346</text>
<text text-anchor="start" x="110" y="199.4" font-family="Times,serif" font-size="13.00">Generated by RailRoady 1.4.1</text>
<text text-anchor="start" x="110" y="213.4" font-family="Times,serif" font-size="13.00">http://railroady.prestonlee.com</text>
</g>
<!-- HomeController -->
<g id="node2" class="node"><title>HomeController</title>
<path fill="none" stroke="black" d="M-56,237.5C-56,237.5 26,237.5 26,237.5 32,237.5 38,231.5 38,225.5 38,225.5 38,156.5 38,156.5 38,150.5 32,144.5 26,144.5 26,144.5 -56,144.5 -56,144.5 -62,144.5 -68,150.5 -68,156.5 -68,156.5 -68,225.5 -68,225.5 -68,231.5 -62,237.5 -56,237.5"/>
<text text-anchor="middle" x="-15" y="159.7" font-family="Times,serif" font-size="14.00">HomeController</text>
<polyline fill="none" stroke="black" points="-68,167.5 38,167.5 "/>
<text text-anchor="start" x="-60" y="182.7" font-family="Times,serif" font-size="14.00">index</text>
<polyline fill="none" stroke="black" points="-68,190.5 38,190.5 "/>
<polyline fill="none" stroke="black" points="-68,214.5 38,214.5 "/>
<text text-anchor="start" x="-60" y="229.7" font-family="Times,serif" font-size="14.00">_layout</text>
</g>
<!-- OmniauthCallbacksController -->
<g id="node3" class="node"><title>OmniauthCallbacksController</title>
<path fill="none" stroke="black" d="M250,101.5C250,101.5 406,101.5 406,101.5 412,101.5 418,95.5 418,89.5 418,89.5 418,20.5 418,20.5 418,14.5 412,8.5 406,8.5 406,8.5 250,8.5 250,8.5 244,8.5 238,14.5 238,20.5 238,20.5 238,89.5 238,89.5 238,95.5 244,101.5 250,101.5"/>
<text text-anchor="middle" x="328" y="23.7" font-family="Times,serif" font-size="14.00">OmniauthCallbacksController</text>
<polyline fill="none" stroke="black" points="238,31.5 418,31.5 "/>
<text text-anchor="start" x="246" y="46.7" font-family="Times,serif" font-size="14.00">facebook</text>
<polyline fill="none" stroke="black" points="238,54.5 418,54.5 "/>
<polyline fill="none" stroke="black" points="238,78.5 418,78.5 "/>
<text text-anchor="start" x="246" y="93.7" font-family="Times,serif" font-size="14.00">_layout</text>
</g>
<!-- SessionsController -->
<g id="node4" class="node"><title>SessionsController</title>
<path fill="none" stroke="black" d="M250,-17.5C250,-17.5 366,-17.5 366,-17.5 372,-17.5 378,-23.5 378,-29.5 378,-29.5 378,-98.5 378,-98.5 378,-104.5 372,-110.5 366,-110.5 366,-110.5 250,-110.5 250,-110.5 244,-110.5 238,-104.5 238,-98.5 238,-98.5 238,-29.5 238,-29.5 238,-23.5 244,-17.5 250,-17.5"/>
<text text-anchor="middle" x="308" y="-95.3" font-family="Times,serif" font-size="14.00">SessionsController</text>
<polyline fill="none" stroke="black" points="238,-87.5 378,-87.5 "/>
<polyline fill="none" stroke="black" points="238,-63.5 378,-63.5 "/>
<text text-anchor="start" x="246" y="-48.3" font-family="Times,serif" font-size="14.00">after_sign_in_path_for</text>
<polyline fill="none" stroke="black" points="238,-40.5 378,-40.5 "/>
<text text-anchor="start" x="246" y="-25.3" font-family="Times,serif" font-size="14.00">_layout</text>
</g>
<!-- TripsController -->
<g id="node5" class="node"><title>TripsController</title>
<path fill="none" stroke="black" d="M114.5,101C114.5,101 191.5,101 191.5,101 197.5,101 203.5,95 203.5,89 203.5,89 203.5,-115 203.5,-115 203.5,-121 197.5,-127 191.5,-127 191.5,-127 114.5,-127 114.5,-127 108.5,-127 102.5,-121 102.5,-115 102.5,-115 102.5,89 102.5,89 102.5,95 108.5,101 114.5,101"/>
<text text-anchor="middle" x="153" y="-111.8" font-family="Times,serif" font-size="14.00">TripsController</text>
<polyline fill="none" stroke="black" points="102.5,-104 203.5,-104 "/>
<text text-anchor="start" x="110.5" y="-88.8" font-family="Times,serif" font-size="14.00">create</text>
<text text-anchor="start" x="110.5" y="-73.8" font-family="Times,serif" font-size="14.00">destroy</text>
<text text-anchor="start" x="110.5" y="-58.8" font-family="Times,serif" font-size="14.00">edit</text>
<text text-anchor="start" x="110.5" y="-43.8" font-family="Times,serif" font-size="14.00">index</text>
<text text-anchor="start" x="110.5" y="-28.8" font-family="Times,serif" font-size="14.00">new</text>
<text text-anchor="start" x="110.5" y="-13.8" font-family="Times,serif" font-size="14.00">search</text>
<text text-anchor="start" x="110.5" y="1.2" font-family="Times,serif" font-size="14.00">show</text>
<text text-anchor="start" x="110.5" y="16.2" font-family="Times,serif" font-size="14.00">update</text>
<polyline fill="none" stroke="black" points="102.5,24 203.5,24 "/>
<polyline fill="none" stroke="black" points="102.5,48 203.5,48 "/>
<text text-anchor="start" x="110.5" y="63.2" font-family="Times,serif" font-size="14.00">_layout</text>
<text text-anchor="start" x="110.5" y="78.2" font-family="Times,serif" font-size="14.00">set_trip</text>
<text text-anchor="start" x="110.5" y="93.2" font-family="Times,serif" font-size="14.00">trip_params</text>
</g>
<!-- UserRequestsController -->
<g id="node6" class="node"><title>UserRequestsController</title>
<path fill="none" stroke="black" d="M165,-153C165,-153 287,-153 287,-153 293,-153 299,-159 299,-165 299,-165 299,-309 299,-309 299,-315 293,-321 287,-321 287,-321 165,-321 165,-321 159,-321 153,-315 153,-309 153,-309 153,-165 153,-165 153,-159 159,-153 165,-153"/>
<text text-anchor="middle" x="226" y="-305.8" font-family="Times,serif" font-size="14.00">UserRequestsController</text>
<polyline fill="none" stroke="black" points="153,-298 299,-298 "/>
<text text-anchor="start" x="161" y="-282.8" font-family="Times,serif" font-size="14.00">approve_request</text>
<text text-anchor="start" x="161" y="-267.8" font-family="Times,serif" font-size="14.00">create</text>
<text text-anchor="start" x="161" y="-252.8" font-family="Times,serif" font-size="14.00">reject_request</text>
<text text-anchor="start" x="161" y="-237.8" font-family="Times,serif" font-size="14.00">show_requests</text>
<polyline fill="none" stroke="black" points="153,-230 299,-230 "/>
<polyline fill="none" stroke="black" points="153,-206 299,-206 "/>
<text text-anchor="start" x="161" y="-190.8" font-family="Times,serif" font-size="14.00">_layout</text>
<text text-anchor="start" x="161" y="-175.8" font-family="Times,serif" font-size="14.00">set_user_request</text>
<text text-anchor="start" x="161" y="-160.8" font-family="Times,serif" font-size="14.00">user_request_params</text>
</g>
<!-- ApplicationController -->
<g id="node7" class="node"><title>ApplicationController</title>
<path fill="none" stroke="black" d="M-107,-136.5C-107,-136.5 63,-136.5 63,-136.5 69,-136.5 75,-142.5 75,-148.5 75,-148.5 75,-247.5 75,-247.5 75,-253.5 69,-259.5 63,-259.5 63,-259.5 -107,-259.5 -107,-259.5 -113,-259.5 -119,-253.5 -119,-247.5 -119,-247.5 -119,-148.5 -119,-148.5 -119,-142.5 -113,-136.5 -107,-136.5"/>
<text text-anchor="middle" x="-22" y="-244.3" font-family="Times,serif" font-size="14.00">ApplicationController</text>
<polyline fill="none" stroke="black" points="-119,-236.5 75,-236.5 "/>
<polyline fill="none" stroke="black" points="-119,-212.5 75,-212.5 "/>
<text text-anchor="start" x="-111" y="-197.3" font-family="Times,serif" font-size="14.00">configure_permitted_parameters</text>
<text text-anchor="start" x="-111" y="-182.3" font-family="Times,serif" font-size="14.00">layout_by_resource</text>
<text text-anchor="start" x="-111" y="-167.3" font-family="Times,serif" font-size="14.00">new_session_path</text>
<polyline fill="none" stroke="black" points="-119,-159.5 75,-159.5 "/>
<text text-anchor="start" x="-111" y="-144.3" font-family="Times,serif" font-size="14.00">_layout</text>
</g>
<!-- RegistrationsController -->
<g id="node8" class="node"><title>RegistrationsController</title>
<path fill="none" stroke="black" d="M-225.5,237.5C-225.5,237.5 -106.5,237.5 -106.5,237.5 -100.5,237.5 -94.5,231.5 -94.5,225.5 -94.5,225.5 -94.5,156.5 -94.5,156.5 -94.5,150.5 -100.5,144.5 -106.5,144.5 -106.5,144.5 -225.5,144.5 -225.5,144.5 -231.5,144.5 -237.5,150.5 -237.5,156.5 -237.5,156.5 -237.5,225.5 -237.5,225.5 -237.5,231.5 -231.5,237.5 -225.5,237.5"/>
<text text-anchor="middle" x="-166" y="159.7" font-family="Times,serif" font-size="14.00">RegistrationsController</text>
<polyline fill="none" stroke="black" points="-237.5,167.5 -94.5,167.5 "/>
<polyline fill="none" stroke="black" points="-237.5,191.5 -94.5,191.5 "/>
<text text-anchor="start" x="-229.5" y="206.7" font-family="Times,serif" font-size="14.00">after_sign_up_path_for</text>
<polyline fill="none" stroke="black" points="-237.5,214.5 -94.5,214.5 "/>
<text text-anchor="start" x="-229.5" y="229.7" font-family="Times,serif" font-size="14.00">_layout</text>
</g>
<!-- CompaniesController -->
<g id="node9" class="node"><title>CompaniesController</title>
<path fill="none" stroke="black" d="M-56,118.5C-56,118.5 54,118.5 54,118.5 60,118.5 66,112.5 66,106.5 66,106.5 66,-82.5 66,-82.5 66,-88.5 60,-94.5 54,-94.5 54,-94.5 -56,-94.5 -56,-94.5 -62,-94.5 -68,-88.5 -68,-82.5 -68,-82.5 -68,106.5 -68,106.5 -68,112.5 -62,118.5 -56,118.5"/>
<text text-anchor="middle" x="-1" y="-79.3" font-family="Times,serif" font-size="14.00">CompaniesController</text>
<polyline fill="none" stroke="black" points="-68,-71.5 66,-71.5 "/>
<text text-anchor="start" x="-60" y="-56.3" font-family="Times,serif" font-size="14.00">create</text>
<text text-anchor="start" x="-60" y="-41.3" font-family="Times,serif" font-size="14.00">destroy</text>
<text text-anchor="start" x="-60" y="-26.3" font-family="Times,serif" font-size="14.00">edit</text>
<text text-anchor="start" x="-60" y="-11.3" font-family="Times,serif" font-size="14.00">index</text>
<text text-anchor="start" x="-60" y="3.7" font-family="Times,serif" font-size="14.00">new</text>
<text text-anchor="start" x="-60" y="18.7" font-family="Times,serif" font-size="14.00">show</text>
<text text-anchor="start" x="-60" y="33.7" font-family="Times,serif" font-size="14.00">update</text>
<polyline fill="none" stroke="black" points="-68,41.5 66,41.5 "/>
<polyline fill="none" stroke="black" points="-68,65.5 66,65.5 "/>
<text text-anchor="start" x="-60" y="80.7" font-family="Times,serif" font-size="14.00">_layout</text>
<text text-anchor="start" x="-60" y="95.7" font-family="Times,serif" font-size="14.00">company_params</text>
<text text-anchor="start" x="-60" y="110.7" font-family="Times,serif" font-size="14.00">set_company</text>
</g>
<!-- PostsController -->
<g id="node10" class="node"><title>PostsController</title>
<path fill="none" stroke="black" d="M-242.5,-256C-242.5,-256 -165.5,-256 -165.5,-256 -159.5,-256 -153.5,-262 -153.5,-268 -153.5,-268 -153.5,-382 -153.5,-382 -153.5,-388 -159.5,-394 -165.5,-394 -165.5,-394 -242.5,-394 -242.5,-394 -248.5,-394 -254.5,-388 -254.5,-382 -254.5,-382 -254.5,-268 -254.5,-268 -254.5,-262 -248.5,-256 -242.5,-256"/>
<text text-anchor="middle" x="-204" y="-378.8" font-family="Times,serif" font-size="14.00">PostsController</text>
<polyline fill="none" stroke="black" points="-254.5,-371 -153.5,-371 "/>
<text text-anchor="start" x="-246.5" y="-355.8" font-family="Times,serif" font-size="14.00">create</text>
<text text-anchor="start" x="-246.5" y="-340.8" font-family="Times,serif" font-size="14.00">index</text>
<polyline fill="none" stroke="black" points="-254.5,-333 -153.5,-333 "/>
<polyline fill="none" stroke="black" points="-254.5,-309 -153.5,-309 "/>
<text text-anchor="start" x="-246.5" y="-293.8" font-family="Times,serif" font-size="14.00">_layout</text>
<text text-anchor="start" x="-246.5" y="-278.8" font-family="Times,serif" font-size="14.00">post_params</text>
<text text-anchor="start" x="-246.5" y="-263.8" font-family="Times,serif" font-size="14.00">set_post</text>
</g>
<!-- UsersController -->
<g id="node11" class="node"><title>UsersController</title>
<path fill="none" stroke="black" d="M-191.5,118.5C-191.5,118.5 -112.5,118.5 -112.5,118.5 -106.5,118.5 -100.5,112.5 -100.5,106.5 -100.5,106.5 -100.5,-82.5 -100.5,-82.5 -100.5,-88.5 -106.5,-94.5 -112.5,-94.5 -112.5,-94.5 -191.5,-94.5 -191.5,-94.5 -197.5,-94.5 -203.5,-88.5 -203.5,-82.5 -203.5,-82.5 -203.5,106.5 -203.5,106.5 -203.5,112.5 -197.5,118.5 -191.5,118.5"/>
<text text-anchor="middle" x="-152" y="-79.3" font-family="Times,serif" font-size="14.00">UsersController</text>
<polyline fill="none" stroke="black" points="-203.5,-71.5 -100.5,-71.5 "/>
<text text-anchor="start" x="-195.5" y="-56.3" font-family="Times,serif" font-size="14.00">create</text>
<text text-anchor="start" x="-195.5" y="-41.3" font-family="Times,serif" font-size="14.00">destroy</text>
<text text-anchor="start" x="-195.5" y="-26.3" font-family="Times,serif" font-size="14.00">edit</text>
<text text-anchor="start" x="-195.5" y="-11.3" font-family="Times,serif" font-size="14.00">index</text>
<text text-anchor="start" x="-195.5" y="3.7" font-family="Times,serif" font-size="14.00">new</text>
<text text-anchor="start" x="-195.5" y="18.7" font-family="Times,serif" font-size="14.00">show</text>
<text text-anchor="start" x="-195.5" y="33.7" font-family="Times,serif" font-size="14.00">update</text>
<polyline fill="none" stroke="black" points="-203.5,41.5 -100.5,41.5 "/>
<polyline fill="none" stroke="black" points="-203.5,65.5 -100.5,65.5 "/>
<text text-anchor="start" x="-195.5" y="80.7" font-family="Times,serif" font-size="14.00">_layout</text>
<text text-anchor="start" x="-195.5" y="95.7" font-family="Times,serif" font-size="14.00">set_user</text>
<text text-anchor="start" x="-195.5" y="110.7" font-family="Times,serif" font-size="14.00">user_params</text>
</g>
</g>
</svg>
