<?xml version="1.0" encoding="UTF-8" standalone="no"?>
<!DOCTYPE svg PUBLIC "-//W3C//DTD SVG 1.1//EN"
 "http://www.w3.org/Graphics/SVG/1.1/DTD/svg11.dtd">
<!-- Generated by graphviz version 2.38.0 (20140413.2041)
 -->
<!-- Title: models_diagram Pages: 1 -->
<svg width="368pt" height="302pt"
 viewBox="0.00 0.00 367.90 302.00" xmlns="http://www.w3.org/2000/svg" xmlns:xlink="http://www.w3.org/1999/xlink">
<g id="graph0" class="graph" transform="scale(1 1) rotate(0) translate(4 298)">
<title>models_diagram</title>
<polygon fill="none" stroke="none" points="-4,4 -4,-298 363.895,-298 363.895,4 -4,4"/>
<!-- _diagram_info -->
<g id="node1" class="node"><title>_diagram_info</title>
<text text-anchor="start" x="8" y="-279.6" font-family="Times,serif" font-size="13.00">Models diagram</text>
<text text-anchor="start" x="8" y="-265.6" font-family="Times,serif" font-size="13.00">Date: Nov 19 2015 &#45; 01:14</text>
<text text-anchor="start" x="8" y="-251.6" font-family="Times,serif" font-size="13.00">Migration version: 20151030030904</text>
<text text-anchor="start" x="8" y="-237.6" font-family="Times,serif" font-size="13.00">Generated by RailRoady 1.4.1</text>
<text text-anchor="start" x="8" y="-223.6" font-family="Times,serif" font-size="13.00">http://railroady.prestonlee.com</text>
</g>
<!-- Post -->
<g id="node2" class="node"><title>Post</title>
<ellipse fill="none" stroke="black" cx="203" cy="-18" rx="27" ry="18"/>
<text text-anchor="middle" x="203" y="-14.3" font-family="Times,serif" font-size="14.00">Post</text>
</g>
<!-- Trip -->
<g id="node3" class="node"><title>Trip</title>
<ellipse fill="none" stroke="black" cx="249" cy="-90" rx="27" ry="18"/>
<text text-anchor="middle" x="249" y="-86.3" font-family="Times,serif" font-size="14.00">Trip</text>
</g>
<!-- Trip&#45;&gt;Post -->
<g id="edge1" class="edge"><title>Trip&#45;&gt;Post</title>
<path fill="none" stroke="#719611" d="M234.088,-66.3083C229.231,-58.9172 223.823,-50.687 218.897,-43.1904"/>
<ellipse fill="none" stroke="#719611" cx="236.365" cy="-69.7731" rx="4.00002" ry="4.00002"/>
<polygon fill="#719611" stroke="#719611" points="218.889,-43.1783 217.157,-32.3499 216.143,-38.9998 213.397,-34.8212 213.397,-34.8212 213.397,-34.8212 216.143,-38.9998 209.636,-37.2925 218.889,-43.1783 218.889,-43.1783"/>
</g>
<!-- UserRequest -->
<g id="node6" class="node"><title>UserRequest</title>
<ellipse fill="none" stroke="black" cx="304" cy="-18" rx="55.7903" ry="18"/>
<text text-anchor="middle" x="304" y="-14.3" font-family="Times,serif" font-size="14.00">UserRequest</text>
</g>
<!-- Trip&#45;&gt;UserRequest -->
<g id="edge2" class="edge"><title>Trip&#45;&gt;UserRequest</title>
<path fill="none" stroke="#f9d8c9" d="M265.978,-67.3922C271.881,-59.8791 278.546,-51.3964 284.628,-43.6555"/>
<ellipse fill="none" stroke="#f9d8c9" cx="263.405" cy="-70.6658" rx="4.00002" ry="4.00002"/>
<polygon fill="#f9d8c9" stroke="#f9d8c9" points="284.757,-43.4911 294.474,-38.4081 287.846,-39.5595 290.935,-35.6278 290.935,-35.6278 290.935,-35.6278 287.846,-39.5595 287.397,-32.8476 284.757,-43.4911 284.757,-43.4911"/>
</g>
<!-- Company -->
<g id="node4" class="node"><title>Company</title>
<ellipse fill="none" stroke="black" cx="277" cy="-255" rx="45.4919" ry="18"/>
<text text-anchor="middle" x="277" y="-251.3" font-family="Times,serif" font-size="14.00">Company</text>
</g>
<!-- Company&#45;&gt;Trip -->
<g id="edge3" class="edge"><title>Company&#45;&gt;Trip</title>
<path fill="none" stroke="#6a3079" d="M272.689,-228.901C267.529,-198.865 258.924,-148.774 253.628,-117.944"/>
<ellipse fill="none" stroke="#6a3079" cx="273.379" cy="-232.922" rx="4.00001" ry="4.00001"/>
<polygon fill="#6a3079" stroke="#6a3079" points="253.597,-117.762 256.339,-107.144 252.751,-112.834 251.904,-107.906 251.904,-107.906 251.904,-107.906 252.751,-112.834 247.469,-108.668 253.597,-117.762 253.597,-117.762"/>
</g>
<!-- User -->
<g id="node5" class="node"><title>User</title>
<ellipse fill="none" stroke="black" cx="304" cy="-162" rx="27.0966" ry="18"/>
<text text-anchor="middle" x="304" y="-158.3" font-family="Times,serif" font-size="14.00">User</text>
</g>
<!-- Company&#45;&gt;User -->
<g id="edge4" class="edge"><title>Company&#45;&gt;User</title>
<path fill="none" stroke="#9314b9" d="M285.034,-226.922C288.55,-215.073 292.66,-201.218 296.154,-189.443"/>
<polygon fill="#9314b9" stroke="#9314b9" points="284.923,-227.297 277.764,-235.604 283.501,-232.09 282.078,-236.884 282.078,-236.884 282.078,-236.884 283.501,-232.09 286.393,-238.164 284.923,-227.297 284.923,-227.297"/>
<polygon fill="#9314b9" stroke="#9314b9" points="296.191,-189.319 303.35,-181.012 297.613,-184.526 299.036,-179.732 299.036,-179.732 299.036,-179.732 297.613,-184.526 294.721,-178.452 296.191,-189.319 296.191,-189.319"/>
</g>
<!-- User&#45;&gt;Trip -->
<g id="edge5" class="edge"><title>User&#45;&gt;Trip</title>
<path fill="none" stroke="#f0870c" d="M287.036,-139.409C280.756,-131.417 273.613,-122.325 267.225,-114.196"/>
<ellipse fill="none" stroke="#f0870c" cx="289.595" cy="-142.666" rx="4.00002" ry="4.00002"/>
<polygon fill="#f0870c" stroke="#f0870c" points="267.089,-114.023 264.449,-103.379 264,-110.091 260.911,-106.159 260.911,-106.159 260.911,-106.159 264,-110.091 257.372,-108.94 267.089,-114.023 267.089,-114.023"/>
</g>
<!-- User&#45;&gt;UserRequest -->
<g id="edge6" class="edge"><title>User&#45;&gt;UserRequest</title>
<path fill="none" stroke="#452c89" d="M304,-135.558C304,-110.444 304,-72.164 304,-46.3932"/>
<ellipse fill="none" stroke="#452c89" cx="304" cy="-139.871" rx="4" ry="4"/>
<polygon fill="#452c89" stroke="#452c89" points="304,-46.1893 308.5,-36.1892 304,-41.1893 304,-36.1893 304,-36.1893 304,-36.1893 304,-41.1893 299.5,-36.1893 304,-46.1893 304,-46.1893"/>
</g>
</g>
</svg>
