<?xml version="1.0" encoding="UTF-8" standalone="no"?>
<!DOCTYPE svg PUBLIC "-//W3C//DTD SVG 1.1//EN"
 "http://www.w3.org/Graphics/SVG/1.1/DTD/svg11.dtd">
<!-- Generated by graphviz version 2.38.0 (20140413.2041)
 -->
<!-- Title: models_diagram Pages: 1 -->
<svg width="521pt" height="1324pt"
 viewBox="0.00 0.00 521.00 1324.00" xmlns="http://www.w3.org/2000/svg" xmlns:xlink="http://www.w3.org/1999/xlink">
<g id="graph0" class="graph" transform="scale(1 1) rotate(0) translate(4 1320)">
<title>models_diagram</title>
<polygon fill="none" stroke="none" points="-4,4 -4,-1320 517,-1320 517,4 -4,4"/>
<!-- _diagram_info -->
<g id="node1" class="node"><title>_diagram_info</title>
<text text-anchor="start" x="8" y="-1182.1" font-family="Times,serif" font-size="13.00">Models diagram</text>
<text text-anchor="start" x="8" y="-1168.1" font-family="Times,serif" font-size="13.00">Date: Nov 24 2015 &#45; 19:50</text>
<text text-anchor="start" x="8" y="-1154.1" font-family="Times,serif" font-size="13.00">Migration version: 20151019003346</text>
<text text-anchor="start" x="8" y="-1140.1" font-family="Times,serif" font-size="13.00">Generated by RailRoady 1.4.1</text>
<text text-anchor="start" x="8" y="-1126.1" font-family="Times,serif" font-size="13.00">http://railroady.prestonlee.com</text>
</g>
<!-- Post -->
<g id="node2" class="node"><title>Post</title>
<path fill="none" stroke="black" d="M190.5,-15.5C190.5,-15.5 297.5,-15.5 297.5,-15.5 303.5,-15.5 309.5,-21.5 309.5,-27.5 309.5,-27.5 309.5,-169.5 309.5,-169.5 309.5,-175.5 303.5,-181.5 297.5,-181.5 297.5,-181.5 190.5,-181.5 190.5,-181.5 184.5,-181.5 178.5,-175.5 178.5,-169.5 178.5,-169.5 178.5,-27.5 178.5,-27.5 178.5,-21.5 184.5,-15.5 190.5,-15.5"/>
<text text-anchor="middle" x="244" y="-166.3" font-family="Times,serif" font-size="14.00">Post</text>
<polyline fill="none" stroke="black" points="178.5,-158.5 309.5,-158.5 "/>
<text text-anchor="start" x="186.5" y="-143.3" font-family="Times,serif" font-size="14.00">id :int(11)</text>
<text text-anchor="start" x="186.5" y="-128.3" font-family="Times,serif" font-size="14.00">name :varchar(255)</text>
<text text-anchor="start" x="186.5" y="-113.3" font-family="Times,serif" font-size="14.00">point :int(11)</text>
<text text-anchor="start" x="186.5" y="-98.3" font-family="Times,serif" font-size="14.00">opinion_local :text</text>
<text text-anchor="start" x="186.5" y="-83.3" font-family="Times,serif" font-size="14.00">opinion_best :text</text>
<text text-anchor="start" x="186.5" y="-68.3" font-family="Times,serif" font-size="14.00">opinion_worst :text</text>
<text text-anchor="start" x="186.5" y="-53.3" font-family="Times,serif" font-size="14.00">trip_id :int(11)</text>
<text text-anchor="start" x="186.5" y="-38.3" font-family="Times,serif" font-size="14.00">created_at :datetime</text>
<text text-anchor="start" x="186.5" y="-23.3" font-family="Times,serif" font-size="14.00">updated_at :datetime</text>
</g>
<!-- Trip -->
<g id="node3" class="node"><title>Trip</title>
<path fill="none" stroke="black" d="M183.5,-233.5C183.5,-233.5 362.5,-233.5 362.5,-233.5 368.5,-233.5 374.5,-239.5 374.5,-245.5 374.5,-245.5 374.5,-522.5 374.5,-522.5 374.5,-528.5 368.5,-534.5 362.5,-534.5 362.5,-534.5 183.5,-534.5 183.5,-534.5 177.5,-534.5 171.5,-528.5 171.5,-522.5 171.5,-522.5 171.5,-245.5 171.5,-245.5 171.5,-239.5 177.5,-233.5 183.5,-233.5"/>
<text text-anchor="middle" x="273" y="-519.3" font-family="Times,serif" font-size="14.00">Trip</text>
<polyline fill="none" stroke="black" points="171.5,-511.5 374.5,-511.5 "/>
<text text-anchor="start" x="179.5" y="-496.3" font-family="Times,serif" font-size="14.00">id :int(11)</text>
<text text-anchor="start" x="179.5" y="-481.3" font-family="Times,serif" font-size="14.00">category :varchar(255)</text>
<text text-anchor="start" x="179.5" y="-466.3" font-family="Times,serif" font-size="14.00">name :varchar(255)</text>
<text text-anchor="start" x="179.5" y="-451.3" font-family="Times,serif" font-size="14.00">origin :varchar(255)</text>
<text text-anchor="start" x="179.5" y="-436.3" font-family="Times,serif" font-size="14.00">destination :varchar(255)</text>
<text text-anchor="start" x="179.5" y="-421.3" font-family="Times,serif" font-size="14.00">price :float</text>
<text text-anchor="start" x="179.5" y="-406.3" font-family="Times,serif" font-size="14.00">average_points :float</text>
<text text-anchor="start" x="179.5" y="-391.3" font-family="Times,serif" font-size="14.00">in_date :date</text>
<text text-anchor="start" x="179.5" y="-376.3" font-family="Times,serif" font-size="14.00">out_date :date</text>
<text text-anchor="start" x="179.5" y="-361.3" font-family="Times,serif" font-size="14.00">description :text</text>
<text text-anchor="start" x="179.5" y="-346.3" font-family="Times,serif" font-size="14.00">company_id :int(11)</text>
<text text-anchor="start" x="179.5" y="-331.3" font-family="Times,serif" font-size="14.00">user_id :int(11)</text>
<text text-anchor="start" x="179.5" y="-316.3" font-family="Times,serif" font-size="14.00">created_at :datetime</text>
<text text-anchor="start" x="179.5" y="-301.3" font-family="Times,serif" font-size="14.00">updated_at :datetime</text>
<text text-anchor="start" x="179.5" y="-286.3" font-family="Times,serif" font-size="14.00">avatar_file_name :varchar(255)</text>
<text text-anchor="start" x="179.5" y="-271.3" font-family="Times,serif" font-size="14.00">avatar_content_type :varchar(255)</text>
<text text-anchor="start" x="179.5" y="-256.3" font-family="Times,serif" font-size="14.00">avatar_file_size :int(11)</text>
<text text-anchor="start" x="179.5" y="-241.3" font-family="Times,serif" font-size="14.00">avatar_updated_at :datetime</text>
</g>
<!-- Trip&#45;&gt;Post -->
<g id="edge1" class="edge"><title>Trip&#45;&gt;Post</title>
<path fill="none" stroke="#5d3c49" d="M256.846,-225.081C255.693,-213.812 254.555,-202.681 253.46,-191.977"/>
<ellipse fill="none" stroke="#5d3c49" cx="257.286" cy="-229.384" rx="4" ry="4"/>
<polygon fill="#5d3c49" stroke="#5d3c49" points="253.442,-191.804 256.901,-181.398 252.933,-186.83 252.424,-181.856 252.424,-181.856 252.424,-181.856 252.933,-186.83 247.948,-182.314 253.442,-191.804 253.442,-191.804"/>
</g>
<!-- UserRequest -->
<g id="node6" class="node"><title>UserRequest</title>
<path fill="none" stroke="black" d="M340,-0.5C340,-0.5 472,-0.5 472,-0.5 478,-0.5 484,-6.5 484,-12.5 484,-12.5 484,-184.5 484,-184.5 484,-190.5 478,-196.5 472,-196.5 472,-196.5 340,-196.5 340,-196.5 334,-196.5 328,-190.5 328,-184.5 328,-184.5 328,-12.5 328,-12.5 328,-6.5 334,-0.5 340,-0.5"/>
<text text-anchor="middle" x="406" y="-181.3" font-family="Times,serif" font-size="14.00">UserRequest</text>
<polyline fill="none" stroke="black" points="328,-173.5 484,-173.5 "/>
<text text-anchor="start" x="336" y="-158.3" font-family="Times,serif" font-size="14.00">id :int(11)</text>
<text text-anchor="start" x="336" y="-143.3" font-family="Times,serif" font-size="14.00">user_name :varchar(255)</text>
<text text-anchor="start" x="336" y="-128.3" font-family="Times,serif" font-size="14.00">user_phone :varchar(255)</text>
<text text-anchor="start" x="336" y="-113.3" font-family="Times,serif" font-size="14.00">user_email :varchar(255)</text>
<text text-anchor="start" x="336" y="-98.3" font-family="Times,serif" font-size="14.00">trip_out_date :datetime</text>
<text text-anchor="start" x="336" y="-83.3" font-family="Times,serif" font-size="14.00">status :varchar(255)</text>
<text text-anchor="start" x="336" y="-68.3" font-family="Times,serif" font-size="14.00">user_message :text</text>
<text text-anchor="start" x="336" y="-53.3" font-family="Times,serif" font-size="14.00">trip_id :int(11)</text>
<text text-anchor="start" x="336" y="-38.3" font-family="Times,serif" font-size="14.00">user_id :int(11)</text>
<text text-anchor="start" x="336" y="-23.3" font-family="Times,serif" font-size="14.00">created_at :datetime</text>
<text text-anchor="start" x="336" y="-8.3" font-family="Times,serif" font-size="14.00">updated_at :datetime</text>
</g>
<!-- Trip&#45;&gt;UserRequest -->
<g id="edge2" class="edge"><title>Trip&#45;&gt;UserRequest</title>
<path fill="none" stroke="#661d3b" d="M346.733,-225.833C349.83,-219.231 352.906,-212.674 355.933,-206.221"/>
<ellipse fill="none" stroke="#661d3b" cx="344.899" cy="-229.742" rx="4.00002" ry="4.00002"/>
<polygon fill="#661d3b" stroke="#661d3b" points="356.084,-205.9 364.405,-198.758 358.207,-201.374 360.331,-196.847 360.331,-196.847 360.331,-196.847 358.207,-201.374 356.257,-194.936 356.084,-205.9 356.084,-205.9"/>
</g>
<!-- Company -->
<g id="node4" class="node"><title>Company</title>
<path fill="none" stroke="black" d="M244,-999.5C244,-999.5 434,-999.5 434,-999.5 440,-999.5 446,-1005.5 446,-1011.5 446,-1011.5 446,-1303.5 446,-1303.5 446,-1309.5 440,-1315.5 434,-1315.5 434,-1315.5 244,-1315.5 244,-1315.5 238,-1315.5 232,-1309.5 232,-1303.5 232,-1303.5 232,-1011.5 232,-1011.5 232,-1005.5 238,-999.5 244,-999.5"/>
<text text-anchor="middle" x="339" y="-1300.3" font-family="Times,serif" font-size="14.00">Company</text>
<polyline fill="none" stroke="black" points="232,-1292.5 446,-1292.5 "/>
<text text-anchor="start" x="240" y="-1277.3" font-family="Times,serif" font-size="14.00">id :int(11)</text>
<text text-anchor="start" x="240" y="-1262.3" font-family="Times,serif" font-size="14.00">created_at :datetime</text>
<text text-anchor="start" x="240" y="-1247.3" font-family="Times,serif" font-size="14.00">updated_at :datetime</text>
<text text-anchor="start" x="240" y="-1232.3" font-family="Times,serif" font-size="14.00">email :varchar(255)</text>
<text text-anchor="start" x="240" y="-1217.3" font-family="Times,serif" font-size="14.00">encrypted_password :varchar(255)</text>
<text text-anchor="start" x="240" y="-1202.3" font-family="Times,serif" font-size="14.00">name :varchar(255)</text>
<text text-anchor="start" x="240" y="-1187.3" font-family="Times,serif" font-size="14.00">cnpj :varchar(255)</text>
<text text-anchor="start" x="240" y="-1172.3" font-family="Times,serif" font-size="14.00">phone :varchar(255)</text>
<text text-anchor="start" x="240" y="-1157.3" font-family="Times,serif" font-size="14.00">andress :varchar(255)</text>
<text text-anchor="start" x="240" y="-1142.3" font-family="Times,serif" font-size="14.00">access_token :varchar(255)</text>
<text text-anchor="start" x="240" y="-1127.3" font-family="Times,serif" font-size="14.00">points :float</text>
<text text-anchor="start" x="240" y="-1112.3" font-family="Times,serif" font-size="14.00">reset_password_token :varchar(255)</text>
<text text-anchor="start" x="240" y="-1097.3" font-family="Times,serif" font-size="14.00">reset_password_sent_at :datetime</text>
<text text-anchor="start" x="240" y="-1082.3" font-family="Times,serif" font-size="14.00">remember_created_at :datetime</text>
<text text-anchor="start" x="240" y="-1067.3" font-family="Times,serif" font-size="14.00">sign_in_count :int(11)</text>
<text text-anchor="start" x="240" y="-1052.3" font-family="Times,serif" font-size="14.00">current_sign_in_at :datetime</text>
<text text-anchor="start" x="240" y="-1037.3" font-family="Times,serif" font-size="14.00">last_sign_in_at :datetime</text>
<text text-anchor="start" x="240" y="-1022.3" font-family="Times,serif" font-size="14.00">current_sign_in_ip :varchar(255)</text>
<text text-anchor="start" x="240" y="-1007.3" font-family="Times,serif" font-size="14.00">last_sign_in_ip :varchar(255)</text>
</g>
<!-- Company&#45;&gt;Trip -->
<g id="edge3" class="edge"><title>Company&#45;&gt;Trip</title>
<path fill="none" stroke="#ab4d99" d="M294.655,-991.406C292.877,-981.835 291.301,-972.318 290,-963 270.393,-822.552 267.248,-661.115 268.367,-544.615"/>
<ellipse fill="none" stroke="#ab4d99" cx="295.443" cy="-995.525" rx="4.00001" ry="4.00001"/>
<polygon fill="#ab4d99" stroke="#ab4d99" points="268.368,-544.544 272.975,-534.593 268.422,-539.544 268.476,-534.544 268.476,-534.544 268.476,-534.544 268.422,-539.544 263.976,-534.496 268.368,-544.544 268.368,-544.544"/>
</g>
<!-- User -->
<g id="node5" class="node"><title>User</title>
<path fill="none" stroke="black" d="M311,-571.5C311,-571.5 501,-571.5 501,-571.5 507,-571.5 513,-577.5 513,-583.5 513,-583.5 513,-950.5 513,-950.5 513,-956.5 507,-962.5 501,-962.5 501,-962.5 311,-962.5 311,-962.5 305,-962.5 299,-956.5 299,-950.5 299,-950.5 299,-583.5 299,-583.5 299,-577.5 305,-571.5 311,-571.5"/>
<text text-anchor="middle" x="406" y="-947.3" font-family="Times,serif" font-size="14.00">User</text>
<polyline fill="none" stroke="black" points="299,-939.5 513,-939.5 "/>
<text text-anchor="start" x="307" y="-924.3" font-family="Times,serif" font-size="14.00">id :int(11)</text>
<text text-anchor="start" x="307" y="-909.3" font-family="Times,serif" font-size="14.00">created_at :datetime</text>
<text text-anchor="start" x="307" y="-894.3" font-family="Times,serif" font-size="14.00">updated_at :datetime</text>
<text text-anchor="start" x="307" y="-879.3" font-family="Times,serif" font-size="14.00">name :varchar(255)</text>
<text text-anchor="start" x="307" y="-864.3" font-family="Times,serif" font-size="14.00">email :varchar(255)</text>
<text text-anchor="start" x="307" y="-849.3" font-family="Times,serif" font-size="14.00">cpf :varchar(255)</text>
<text text-anchor="start" x="307" y="-834.3" font-family="Times,serif" font-size="14.00">phone :varchar(255)</text>
<text text-anchor="start" x="307" y="-819.3" font-family="Times,serif" font-size="14.00">andress :varchar(255)</text>
<text text-anchor="start" x="307" y="-804.3" font-family="Times,serif" font-size="14.00">access_token :varchar(255)</text>
<text text-anchor="start" x="307" y="-789.3" font-family="Times,serif" font-size="14.00">photo_url :varchar(255)</text>
<text text-anchor="start" x="307" y="-774.3" font-family="Times,serif" font-size="14.00">encrypted_password :varchar(255)</text>
<text text-anchor="start" x="307" y="-759.3" font-family="Times,serif" font-size="14.00">reset_password_token :varchar(255)</text>
<text text-anchor="start" x="307" y="-744.3" font-family="Times,serif" font-size="14.00">reset_password_sent_at :datetime</text>
<text text-anchor="start" x="307" y="-729.3" font-family="Times,serif" font-size="14.00">remember_created_at :datetime</text>
<text text-anchor="start" x="307" y="-714.3" font-family="Times,serif" font-size="14.00">sign_in_count :int(11)</text>
<text text-anchor="start" x="307" y="-699.3" font-family="Times,serif" font-size="14.00">current_sign_in_at :datetime</text>
<text text-anchor="start" x="307" y="-684.3" font-family="Times,serif" font-size="14.00">last_sign_in_at :datetime</text>
<text text-anchor="start" x="307" y="-669.3" font-family="Times,serif" font-size="14.00">current_sign_in_ip :varchar(255)</text>
<text text-anchor="start" x="307" y="-654.3" font-family="Times,serif" font-size="14.00">last_sign_in_ip :varchar(255)</text>
<text text-anchor="start" x="307" y="-639.3" font-family="Times,serif" font-size="14.00">user_name :varchar(255)</text>
<text text-anchor="start" x="307" y="-624.3" font-family="Times,serif" font-size="14.00">oauth_token :varchar(255)</text>
<text text-anchor="start" x="307" y="-609.3" font-family="Times,serif" font-size="14.00">token_secret :varchar(255)</text>
<text text-anchor="start" x="307" y="-594.3" font-family="Times,serif" font-size="14.00">provider :varchar(255)</text>
<text text-anchor="start" x="307" y="-579.3" font-family="Times,serif" font-size="14.00">uid :varchar(255)</text>
</g>
<!-- Company&#45;&gt;User -->
<g id="edge4" class="edge"><title>Company&#45;&gt;User</title>
<path fill="none" stroke="#016066" d="M367.826,-989.354C368.781,-983.816 369.741,-978.248 370.703,-972.668"/>
<polygon fill="#016066" stroke="#016066" points="367.806,-989.468 361.672,-998.557 366.956,-994.395 366.107,-999.322 366.107,-999.322 366.107,-999.322 366.956,-994.395 370.541,-1000.09 367.806,-989.468 367.806,-989.468"/>
<polygon fill="#016066" stroke="#016066" points="370.737,-972.471 376.871,-963.381 371.587,-967.544 372.437,-962.617 372.437,-962.617 372.437,-962.617 371.587,-967.544 368.002,-961.852 370.737,-972.471 370.737,-972.471"/>
</g>
<!-- User&#45;&gt;Trip -->
<g id="edge5" class="edge"><title>User&#45;&gt;Trip</title>
<path fill="none" stroke="#f88aef" d="M335.328,-563.549C333.112,-557.2 330.902,-550.87 328.708,-544.585"/>
<ellipse fill="none" stroke="#f88aef" cx="336.721" cy="-567.538" rx="4.00001" ry="4.00001"/>
<polygon fill="#f88aef" stroke="#f88aef" points="328.571,-544.192 329.524,-533.268 326.923,-539.472 325.275,-534.751 325.275,-534.751 325.275,-534.751 326.923,-539.472 321.027,-536.234 328.571,-544.192 328.571,-544.192"/>
</g>
<!-- User&#45;&gt;UserRequest -->
<g id="edge6" class="edge"><title>User&#45;&gt;UserRequest</title>
<path fill="none" stroke="#f15096" d="M406,-563.098C406,-445.874 406,-303.105 406,-207.239"/>
<ellipse fill="none" stroke="#f15096" cx="406" cy="-567.429" rx="4" ry="4"/>
<polygon fill="#f15096" stroke="#f15096" points="406,-206.95 410.5,-196.95 406,-201.95 406,-196.95 406,-196.95 406,-196.95 406,-201.95 401.5,-196.95 406,-206.95 406,-206.95"/>
</g>
</g>
</svg>
