<?xml version="1.0" encoding="UTF-8" standalone="no"?>
<!DOCTYPE svg PUBLIC "-//W3C//DTD SVG 1.1//EN"
 "http://www.w3.org/Graphics/SVG/1.1/DTD/svg11.dtd">
<!-- Generated by graphviz version 2.38.0 (20140413.2041)
 -->
<!-- Title: models_diagram Pages: 1 -->
<svg width="521pt" height="1294pt"
 viewBox="0.00 0.00 521.00 1294.00" xmlns="http://www.w3.org/2000/svg" xmlns:xlink="http://www.w3.org/1999/xlink">
<g id="graph0" class="graph" transform="scale(1 1) rotate(0) translate(4 1290)">
<title>models_diagram</title>
<polygon fill="none" stroke="none" points="-4,4 -4,-1290 517,-1290 517,4 -4,4"/>
<!-- _diagram_info -->
<g id="node1" class="node"><title>_diagram_info</title>
<text text-anchor="start" x="8" y="-1159.6" font-family="Times,serif" font-size="13.00">Models diagram</text>
<text text-anchor="start" x="8" y="-1145.6" font-family="Times,serif" font-size="13.00">Date: Nov 19 2015 &#45; 01:14</text>
<text text-anchor="start" x="8" y="-1131.6" font-family="Times,serif" font-size="13.00">Migration version: 20151030030904</text>
<text text-anchor="start" x="8" y="-1117.6" font-family="Times,serif" font-size="13.00">Generated by RailRoady 1.4.1</text>
<text text-anchor="start" x="8" y="-1103.6" font-family="Times,serif" font-size="13.00">http://railroady.prestonlee.com</text>
</g>
<!-- Post -->
<g id="node2" class="node"><title>Post</title>
<path fill="none" stroke="black" d="M190.5,-30.5C190.5,-30.5 297.5,-30.5 297.5,-30.5 303.5,-30.5 309.5,-36.5 309.5,-42.5 309.5,-42.5 309.5,-154.5 309.5,-154.5 309.5,-160.5 303.5,-166.5 297.5,-166.5 297.5,-166.5 190.5,-166.5 190.5,-166.5 184.5,-166.5 178.5,-160.5 178.5,-154.5 178.5,-154.5 178.5,-42.5 178.5,-42.5 178.5,-36.5 184.5,-30.5 190.5,-30.5"/>
<text text-anchor="middle" x="244" y="-151.3" font-family="Times,serif" font-size="14.00">Post</text>
<polyline fill="none" stroke="black" points="178.5,-143.5 309.5,-143.5 "/>
<text text-anchor="start" x="186.5" y="-128.3" font-family="Times,serif" font-size="14.00">id :int(11)</text>
<text text-anchor="start" x="186.5" y="-113.3" font-family="Times,serif" font-size="14.00">name :varchar(255)</text>
<text text-anchor="start" x="186.5" y="-98.3" font-family="Times,serif" font-size="14.00">post_date :date</text>
<text text-anchor="start" x="186.5" y="-83.3" font-family="Times,serif" font-size="14.00">message :text</text>
<text text-anchor="start" x="186.5" y="-68.3" font-family="Times,serif" font-size="14.00">trip_id :int(11)</text>
<text text-anchor="start" x="186.5" y="-53.3" font-family="Times,serif" font-size="14.00">created_at :datetime</text>
<text text-anchor="start" x="186.5" y="-38.3" font-family="Times,serif" font-size="14.00">updated_at :datetime</text>
</g>
<!-- Trip -->
<g id="node3" class="node"><title>Trip</title>
<path fill="none" stroke="black" d="M183.5,-233.5C183.5,-233.5 362.5,-233.5 362.5,-233.5 368.5,-233.5 374.5,-239.5 374.5,-245.5 374.5,-245.5 374.5,-507.5 374.5,-507.5 374.5,-513.5 368.5,-519.5 362.5,-519.5 362.5,-519.5 183.5,-519.5 183.5,-519.5 177.5,-519.5 171.5,-513.5 171.5,-507.5 171.5,-507.5 171.5,-245.5 171.5,-245.5 171.5,-239.5 177.5,-233.5 183.5,-233.5"/>
<text text-anchor="middle" x="273" y="-504.3" font-family="Times,serif" font-size="14.00">Trip</text>
<polyline fill="none" stroke="black" points="171.5,-496.5 374.5,-496.5 "/>
<text text-anchor="start" x="179.5" y="-481.3" font-family="Times,serif" font-size="14.00">id :int(11)</text>
<text text-anchor="start" x="179.5" y="-466.3" font-family="Times,serif" font-size="14.00">category :varchar(255)</text>
<text text-anchor="start" x="179.5" y="-451.3" font-family="Times,serif" font-size="14.00">name :varchar(255)</text>
<text text-anchor="start" x="179.5" y="-436.3" font-family="Times,serif" font-size="14.00">origin :varchar(255)</text>
<text text-anchor="start" x="179.5" y="-421.3" font-family="Times,serif" font-size="14.00">destination :varchar(255)</text>
<text text-anchor="start" x="179.5" y="-406.3" font-family="Times,serif" font-size="14.00">price :float</text>
<text text-anchor="start" x="179.5" y="-391.3" font-family="Times,serif" font-size="14.00">in_date :date</text>
<text text-anchor="start" x="179.5" y="-376.3" font-family="Times,serif" font-size="14.00">out_date :date</text>
<text text-anchor="start" x="179.5" y="-361.3" font-family="Times,serif" font-size="14.00">description :text</text>
<text text-anchor="start" x="179.5" y="-346.3" font-family="Times,serif" font-size="14.00">company_id :int(11)</text>
<text text-anchor="start" x="179.5" y="-331.3" font-family="Times,serif" font-size="14.00">user_id :int(11)</text>
<text text-anchor="start" x="179.5" y="-316.3" font-family="Times,serif" font-size="14.00">created_at :datetime</text>
<text text-anchor="start" x="179.5" y="-301.3" font-family="Times,serif" font-size="14.00">updated_at :datetime</text>
<text text-anchor="start" x="179.5" y="-286.3" font-family="Times,serif" font-size="14.00">avatar_file_name :varchar(255)</text>
<text text-anchor="start" x="179.5" y="-271.3" font-family="Times,serif" font-size="14.00">avatar_content_type :varchar(255)</text>
<text text-anchor="start" x="179.5" y="-256.3" font-family="Times,serif" font-size="14.00">avatar_file_size :int(11)</text>
<text text-anchor="start" x="179.5" y="-241.3" font-family="Times,serif" font-size="14.00">avatar_updated_at :datetime</text>
</g>
<!-- Trip&#45;&gt;Post -->
<g id="edge1" class="edge"><title>Trip&#45;&gt;Post</title>
<path fill="none" stroke="#82d0ad" d="M257.218,-225.295C255.471,-208.673 253.749,-192.288 252.155,-177.116"/>
<ellipse fill="none" stroke="#82d0ad" cx="257.657" cy="-229.479" rx="4" ry="4"/>
<polygon fill="#82d0ad" stroke="#82d0ad" points="252.118,-176.764 255.549,-166.348 251.596,-171.791 251.073,-166.819 251.073,-166.819 251.073,-166.819 251.596,-171.791 246.598,-167.289 252.118,-176.764 252.118,-176.764"/>
</g>
<!-- UserRequest -->
<g id="node6" class="node"><title>UserRequest</title>
<path fill="none" stroke="black" d="M340,-0.5C340,-0.5 472,-0.5 472,-0.5 478,-0.5 484,-6.5 484,-12.5 484,-12.5 484,-184.5 484,-184.5 484,-190.5 478,-196.5 472,-196.5 472,-196.5 340,-196.5 340,-196.5 334,-196.5 328,-190.5 328,-184.5 328,-184.5 328,-12.5 328,-12.5 328,-6.5 334,-0.5 340,-0.5"/>
<text text-anchor="middle" x="406" y="-181.3" font-family="Times,serif" font-size="14.00">UserRequest</text>
<polyline fill="none" stroke="black" points="328,-173.5 484,-173.5 "/>
<text text-anchor="start" x="336" y="-158.3" font-family="Times,serif" font-size="14.00">id :int(11)</text>
<text text-anchor="start" x="336" y="-143.3" font-family="Times,serif" font-size="14.00">user_name :varchar(255)</text>
<text text-anchor="start" x="336" y="-128.3" font-family="Times,serif" font-size="14.00">user_phone :varchar(255)</text>
<text text-anchor="start" x="336" y="-113.3" font-family="Times,serif" font-size="14.00">user_email :varchar(255)</text>
<text text-anchor="start" x="336" y="-98.3" font-family="Times,serif" font-size="14.00">trip_out_date :datetime</text>
<text text-anchor="start" x="336" y="-83.3" font-family="Times,serif" font-size="14.00">status :varchar(255)</text>
<text text-anchor="start" x="336" y="-68.3" font-family="Times,serif" font-size="14.00">user_message :text</text>
<text text-anchor="start" x="336" y="-53.3" font-family="Times,serif" font-size="14.00">trip_id :int(11)</text>
<text text-anchor="start" x="336" y="-38.3" font-family="Times,serif" font-size="14.00">user_id :int(11)</text>
<text text-anchor="start" x="336" y="-23.3" font-family="Times,serif" font-size="14.00">created_at :datetime</text>
<text text-anchor="start" x="336" y="-8.3" font-family="Times,serif" font-size="14.00">updated_at :datetime</text>
</g>
<!-- Trip&#45;&gt;UserRequest -->
<g id="edge2" class="edge"><title>Trip&#45;&gt;UserRequest</title>
<path fill="none" stroke="#428062" d="M344.95,-226.191C348.251,-219.34 351.534,-212.527 354.767,-205.819"/>
<ellipse fill="none" stroke="#428062" cx="343.184" cy="-229.854" rx="4.00002" ry="4.00002"/>
<polygon fill="#428062" stroke="#428062" points="354.799,-205.752 363.194,-198.697 356.969,-201.248 359.14,-196.744 359.14,-196.744 359.14,-196.744 356.969,-201.248 355.086,-194.79 354.799,-205.752 354.799,-205.752"/>
</g>
<!-- Company -->
<g id="node4" class="node"><title>Company</title>
<path fill="none" stroke="black" d="M244,-984.5C244,-984.5 434,-984.5 434,-984.5 440,-984.5 446,-990.5 446,-996.5 446,-996.5 446,-1273.5 446,-1273.5 446,-1279.5 440,-1285.5 434,-1285.5 434,-1285.5 244,-1285.5 244,-1285.5 238,-1285.5 232,-1279.5 232,-1273.5 232,-1273.5 232,-996.5 232,-996.5 232,-990.5 238,-984.5 244,-984.5"/>
<text text-anchor="middle" x="339" y="-1270.3" font-family="Times,serif" font-size="14.00">Company</text>
<polyline fill="none" stroke="black" points="232,-1262.5 446,-1262.5 "/>
<text text-anchor="start" x="240" y="-1247.3" font-family="Times,serif" font-size="14.00">id :int(11)</text>
<text text-anchor="start" x="240" y="-1232.3" font-family="Times,serif" font-size="14.00">created_at :datetime</text>
<text text-anchor="start" x="240" y="-1217.3" font-family="Times,serif" font-size="14.00">updated_at :datetime</text>
<text text-anchor="start" x="240" y="-1202.3" font-family="Times,serif" font-size="14.00">email :varchar(255)</text>
<text text-anchor="start" x="240" y="-1187.3" font-family="Times,serif" font-size="14.00">encrypted_password :varchar(255)</text>
<text text-anchor="start" x="240" y="-1172.3" font-family="Times,serif" font-size="14.00">name :varchar(255)</text>
<text text-anchor="start" x="240" y="-1157.3" font-family="Times,serif" font-size="14.00">cnpj :varchar(255)</text>
<text text-anchor="start" x="240" y="-1142.3" font-family="Times,serif" font-size="14.00">phone :varchar(255)</text>
<text text-anchor="start" x="240" y="-1127.3" font-family="Times,serif" font-size="14.00">andress :varchar(255)</text>
<text text-anchor="start" x="240" y="-1112.3" font-family="Times,serif" font-size="14.00">access_token :varchar(255)</text>
<text text-anchor="start" x="240" y="-1097.3" font-family="Times,serif" font-size="14.00">reset_password_token :varchar(255)</text>
<text text-anchor="start" x="240" y="-1082.3" font-family="Times,serif" font-size="14.00">reset_password_sent_at :datetime</text>
<text text-anchor="start" x="240" y="-1067.3" font-family="Times,serif" font-size="14.00">remember_created_at :datetime</text>
<text text-anchor="start" x="240" y="-1052.3" font-family="Times,serif" font-size="14.00">sign_in_count :int(11)</text>
<text text-anchor="start" x="240" y="-1037.3" font-family="Times,serif" font-size="14.00">current_sign_in_at :datetime</text>
<text text-anchor="start" x="240" y="-1022.3" font-family="Times,serif" font-size="14.00">last_sign_in_at :datetime</text>
<text text-anchor="start" x="240" y="-1007.3" font-family="Times,serif" font-size="14.00">current_sign_in_ip :varchar(255)</text>
<text text-anchor="start" x="240" y="-992.3" font-family="Times,serif" font-size="14.00">last_sign_in_ip :varchar(255)</text>
</g>
<!-- Company&#45;&gt;Trip -->
<g id="edge3" class="edge"><title>Company&#45;&gt;Trip</title>
<path fill="none" stroke="#1785d5" d="M294.841,-976.336C292.986,-966.793 291.345,-957.295 290,-948 269.65,-807.35 266.766,-645.233 268.165,-529.848"/>
<ellipse fill="none" stroke="#1785d5" cx="295.663" cy="-980.438" rx="4.00001" ry="4.00001"/>
<polygon fill="#1785d5" stroke="#1785d5" points="268.169,-529.53 272.802,-519.591 268.236,-524.53 268.303,-519.531 268.303,-519.531 268.303,-519.531 268.236,-524.53 263.803,-519.471 268.169,-529.53 268.169,-529.53"/>
</g>
<!-- User -->
<g id="node5" class="node"><title>User</title>
<path fill="none" stroke="black" d="M311,-556.5C311,-556.5 501,-556.5 501,-556.5 507,-556.5 513,-562.5 513,-568.5 513,-568.5 513,-935.5 513,-935.5 513,-941.5 507,-947.5 501,-947.5 501,-947.5 311,-947.5 311,-947.5 305,-947.5 299,-941.5 299,-935.5 299,-935.5 299,-568.5 299,-568.5 299,-562.5 305,-556.5 311,-556.5"/>
<text text-anchor="middle" x="406" y="-932.3" font-family="Times,serif" font-size="14.00">User</text>
<polyline fill="none" stroke="black" points="299,-924.5 513,-924.5 "/>
<text text-anchor="start" x="307" y="-909.3" font-family="Times,serif" font-size="14.00">id :int(11)</text>
<text text-anchor="start" x="307" y="-894.3" font-family="Times,serif" font-size="14.00">created_at :datetime</text>
<text text-anchor="start" x="307" y="-879.3" font-family="Times,serif" font-size="14.00">updated_at :datetime</text>
<text text-anchor="start" x="307" y="-864.3" font-family="Times,serif" font-size="14.00">name :varchar(255)</text>
<text text-anchor="start" x="307" y="-849.3" font-family="Times,serif" font-size="14.00">email :varchar(255)</text>
<text text-anchor="start" x="307" y="-834.3" font-family="Times,serif" font-size="14.00">cpf :varchar(255)</text>
<text text-anchor="start" x="307" y="-819.3" font-family="Times,serif" font-size="14.00">phone :varchar(255)</text>
<text text-anchor="start" x="307" y="-804.3" font-family="Times,serif" font-size="14.00">andress :varchar(255)</text>
<text text-anchor="start" x="307" y="-789.3" font-family="Times,serif" font-size="14.00">access_token :varchar(255)</text>
<text text-anchor="start" x="307" y="-774.3" font-family="Times,serif" font-size="14.00">photo_url :varchar(255)</text>
<text text-anchor="start" x="307" y="-759.3" font-family="Times,serif" font-size="14.00">encrypted_password :varchar(255)</text>
<text text-anchor="start" x="307" y="-744.3" font-family="Times,serif" font-size="14.00">reset_password_token :varchar(255)</text>
<text text-anchor="start" x="307" y="-729.3" font-family="Times,serif" font-size="14.00">reset_password_sent_at :datetime</text>
<text text-anchor="start" x="307" y="-714.3" font-family="Times,serif" font-size="14.00">remember_created_at :datetime</text>
<text text-anchor="start" x="307" y="-699.3" font-family="Times,serif" font-size="14.00">sign_in_count :int(11)</text>
<text text-anchor="start" x="307" y="-684.3" font-family="Times,serif" font-size="14.00">current_sign_in_at :datetime</text>
<text text-anchor="start" x="307" y="-669.3" font-family="Times,serif" font-size="14.00">last_sign_in_at :datetime</text>
<text text-anchor="start" x="307" y="-654.3" font-family="Times,serif" font-size="14.00">current_sign_in_ip :varchar(255)</text>
<text text-anchor="start" x="307" y="-639.3" font-family="Times,serif" font-size="14.00">last_sign_in_ip :varchar(255)</text>
<text text-anchor="start" x="307" y="-624.3" font-family="Times,serif" font-size="14.00">user_name :varchar(255)</text>
<text text-anchor="start" x="307" y="-609.3" font-family="Times,serif" font-size="14.00">oauth_token :varchar(255)</text>
<text text-anchor="start" x="307" y="-594.3" font-family="Times,serif" font-size="14.00">token_secret :varchar(255)</text>
<text text-anchor="start" x="307" y="-579.3" font-family="Times,serif" font-size="14.00">provider :varchar(255)</text>
<text text-anchor="start" x="307" y="-564.3" font-family="Times,serif" font-size="14.00">uid :varchar(255)</text>
</g>
<!-- Company&#45;&gt;User -->
<g id="edge4" class="edge"><title>Company&#45;&gt;User</title>
<path fill="none" stroke="#58900c" d="M367.088,-974.278C368.061,-968.741 369.041,-963.168 370.024,-957.578"/>
<polygon fill="#58900c" stroke="#58900c" points="367.068,-974.39 360.904,-983.46 366.202,-979.315 365.336,-984.239 365.336,-984.239 365.336,-984.239 366.202,-979.315 369.768,-985.018 367.068,-974.39 367.068,-974.39"/>
<polygon fill="#58900c" stroke="#58900c" points="370.064,-957.352 376.228,-948.283 370.93,-952.428 371.796,-947.503 371.796,-947.503 371.796,-947.503 370.93,-952.428 367.364,-946.724 370.064,-957.352 370.064,-957.352"/>
</g>
<!-- User&#45;&gt;Trip -->
<g id="edge5" class="edge"><title>User&#45;&gt;Trip</title>
<path fill="none" stroke="#8e38a6" d="M333.906,-548.54C331.642,-542.182 329.387,-535.849 327.151,-529.571"/>
<ellipse fill="none" stroke="#8e38a6" cx="335.334" cy="-552.551" rx="4.00001" ry="4.00001"/>
<polygon fill="#8e38a6" stroke="#8e38a6" points="327.01,-529.173 327.894,-518.243 325.332,-524.463 323.655,-519.753 323.655,-519.753 323.655,-519.753 325.332,-524.463 319.416,-521.262 327.01,-529.173 327.01,-529.173"/>
</g>
<!-- User&#45;&gt;UserRequest -->
<g id="edge6" class="edge"><title>User&#45;&gt;UserRequest</title>
<path fill="none" stroke="#c4e103" d="M406,-548.373C406,-435.416 406,-299.299 406,-206.788"/>
<ellipse fill="none" stroke="#c4e103" cx="406" cy="-552.411" rx="4" ry="4"/>
<polygon fill="#c4e103" stroke="#c4e103" points="406,-206.571 410.5,-196.571 406,-201.571 406,-196.571 406,-196.571 406,-196.571 406,-201.571 401.5,-196.571 406,-206.571 406,-206.571"/>
</g>
</g>
</svg>
